<svg width="172" height="171" viewBox="0 0 172 171" fill="none" xmlns="http://www.w3.org/2000/svg">
<path d="M0.5 0.5H11V8.5C11 11 13 13 13.5 13.5L20.5 20.5L37.5 37.5L46.5 46.5L63 63L157 157L157.5 157.5L170.5 170.5H157.5L144.5 157.5L139 152L3 16L2.97107 15.9592C2 15 0.5 11.6634 0.5 8.5V0.5Z" fill="#641A2E"/>
<path d="M144.5 157.5H157.5L157 157M144.5 157.5L139 152L3 16C2.99047 15.9867 2.98082 15.973 2.97107 15.9592C2 15 0.5 11.6634 0.5 8.5C0.5 5.3 0.5 1.83333 0.5 0.5H11V8.5C11 11 13 13 13.5 13.5L20.5 20.5L37.5 37.5L46.5 46.5L63 63L157 157M144.5 157.5L157.5 170.5H170.5L157 157" stroke="#641A2E"/>
</svg>
