<svg width="544" height="60" viewBox="0 0 544 60" fill="none" xmlns="http://www.w3.org/2000/svg">
<path d="M45.5 10.5C42.8333 7.16667 30 0.5 0 0.5H313H544C514 0.5 501.167 7.16667 498.5 10.5L456 51C453 53.6667 442.9 59 426.5 59H313H117.5C101.1 59 91 53.6667 88 51L45.5 10.5Z" fill="#641A2E"/>
<path d="M117.5 59C101.1 59 91 53.6667 88 51L45.5 10.5C42.8333 7.16667 30 0.500001 0 0.500001L313 0.5H544C514 0.5 501.167 7.16667 498.5 10.5L456 51C453 53.6667 442.9 59 426.5 59H313M117.5 59C133.9 59 282 59 313 59M117.5 59H313" stroke="#641A2E"/>
</svg>
